Coordinates
version=1
nRows=13
nColumns=40
inDegrees=yes

Units are S.I. units (second, meters, Newtons, ...)
Angles are in degrees.

endheader
time	pelvis_tilt	pelvis_list	pelvis_rotation	pelvis_tx	pelvis_ty	pelvis_tz	hip_flexion_r	hip_adduction_r	hip_rotation_r	knee_angle_r	knee_angle_r_beta	ankle_angle_r	subtalar_angle_r	mtp_angle_r	hip_flexion_l	hip_adduction_l	hip_rotation_l	knee_angle_l	knee_angle_l_beta	ankle_angle_l	subtalar_angle_l	mtp_angle_l	lumbar_extension	lumbar_bending	lumbar_rotation	arm_flex_r	arm_add_r	arm_rot_r	elbow_flex_r	pro_sup_r	wrist_flex_r	wrist_dev_r	arm_flex_l	arm_add_l	arm_rot_l	elbow_flex_l	pro_sup_l	wrist_flex_l	wrist_dev_l
     24.21000000	     -5.97587147	     -6.49648804	      5.20029301	      0.78062785	      0.92017116	      0.42608631	      3.59863429	      5.30381517	    -17.19552885	      9.73453227	      9.73453227	     14.60311517	      1.15625996	     -5.51771627	     32.97358260	     -7.66994713	      0.30489889	     23.24571880	     23.24571880	      6.68293431	     -9.49433715	      8.15029630	    -11.39374850	      5.60825614	      4.22738924	     26.70291384	    -15.36912018	      8.59084600	     67.14470556	     44.61094236	      0.00000000	      0.00000000	     -5.36831075	    -13.07731890	    -22.03709736	     32.46323440	     47.36798911	      0.00000000	      0.00000000
     24.22285714	     -5.95107836	     -6.62115820	      5.01441834	      0.78305974	      0.91902010	      0.42498535	      3.11965170	      5.38808013	    -16.94508517	      9.90039190	      9.90039190	     15.08530573	      1.18846237	     -5.63990671	     32.54337689	     -7.82889664	     -0.13029565	     23.46568973	     23.46568973	      6.35707538	     -9.81495803	      8.16733670	    -11.10575652	      5.53577413	      4.32824094	     26.28039572	    -15.20032618	      8.72249625	     67.03494975	     44.60977591	      0.00000000	      0.00000000	     -5.65265474	    -13.27830404	    -22.14133504	     32.37707583	     47.37750974	      0.00000000	      0.00000000
     24.23571429	     -5.82820069	     -6.58214448	      4.81280257	      0.78560536	      0.91811071	      0.42366428	      2.57689521	      5.26274362	    -16.65869740	     10.19287172	     10.19287172	     15.54824320	      1.10622307	     -5.65642633	     32.03144843	     -7.83892490	     -0.47993705	     23.86037210	     23.86037210	      6.08487378	    -10.19365598	      7.98168999	    -10.93160449	      5.28978074	      4.31872483	     25.75221486	    -14.96361478	      8.90188861	     66.89601459	     44.60830265	      0.00000000	      0.00000000	     -5.90097481	    -13.51248174	    -22.27947979	     32.28961082	     47.39172687	      0.00000000	      0.00000000
     24.24857143	     -5.69095275	     -6.49902640	      4.67284803	      0.78806661	      0.91732540	      0.42216938	      2.08376437	      5.06658236	    -16.38249346	     10.59776243	     10.59776243	     16.04358572	      0.90768159	     -5.59478192	     31.57434127	     -7.77162736	     -0.69638332	     24.37280809	     24.37280809	      5.83706054	    -10.61817450	      7.66532125	    -10.81039587	      5.01511034	      4.18584453	     25.24136330	    -14.75575133	      9.06954968	     66.74531674	     44.60816681	      0.00000000	      0.00000000	     -6.04223581	    -13.75155872	    -22.42997156	     32.22287238	     47.40904424	      0.00000000	      0.00000000
     24.26142857	     -5.61261980	     -6.43079816	      4.54587911	      0.79038750	      0.91662530	      0.42050451	      1.96397503	      4.81503113	    -15.84769064	     11.67420791	     11.67420791	     17.60168326	      0.43618919	     -2.37694858	     31.01815099	     -7.60940610	     -0.54460480	     24.44961825	     24.44961825	      3.98509398	    -12.10080818	      3.71634198	    -10.63947667	      4.75976633	      3.69690901	     25.17764658	    -14.45016633	      9.82347480	     65.95276545	     44.66404575	      0.00000000	      0.00000000	     -6.11256125	    -13.73239672	    -24.32187765	     32.02736703	     47.61731327	      0.00000000	      0.00000000
     24.27428571	     -5.42322287	     -6.29289160	      4.45301832	      0.79270574	      0.91623720	      0.41863855	      1.52747350	      4.48965547	    -15.69510977	     12.27410507	     12.27410507	     17.94466970	      0.29827533	     -2.43392667	     30.65961606	     -7.43413679	     -0.49150841	     25.23854447	     25.23854447	      4.15173268	    -12.58044869	      3.56650292	    -10.64727439	      4.45518786	      3.54498258	     24.56102919	    -14.34022183	      9.90691976	     65.77440841	     44.66913519	      0.00000000	      0.00000000	     -6.05328116	    -13.95320675	    -24.45367576	     32.01902018	     47.63231439	      0.00000000	      0.00000000
     24.28714286	     -5.36801897	     -6.09227131	      4.37645074	      0.79480545	      0.91587427	      0.41650398	      1.46465187	      4.00523634	    -15.54112404	     13.30648725	     13.30648725	     18.40603463	     -0.04923237	     -2.14154503	     30.44138955	     -7.09473033	     -0.22603559	     25.99335857	     25.99335857	      4.40341722	    -13.32379803	      3.65843676	    -10.50275899	      4.11091586	      3.44998595	     23.79952148	    -14.30093211	      9.89950363	     65.47554167	     44.68960860	      0.00000000	      0.00000000	     -5.81807929	    -14.10761288	    -24.73891097	     31.95843225	     47.66097313	      0.00000000	      0.00000000
     24.30000000	     -5.23362520	     -5.91168710	      4.30301283	      0.79689496	      0.91582569	      0.41421374	      1.29651795	      3.53749309	    -15.43373557	     14.28420484	     14.28420484	     18.79288499	     -0.31427839	     -1.79232976	     30.14998083	     -6.78282519	     -0.00460658	     26.76788969	     26.76788969	      4.86792689	    -13.94472913	      3.87425734	    -10.44909667	      3.84582585	      3.39917622	     23.02345830	    -14.31440900	      9.83924376	     65.10254152	     44.71396943	      0.00000000	      0.00000000	     -5.45681341	    -14.29022468	    -24.97746404	     31.94096706	     47.68517593	      0.00000000	      0.00000000
     24.31285714	     -4.95018339	     -5.80172138	      4.26028241	      0.79898440	      0.91623934	      0.41180228	      0.87361355	      3.16942154	    -15.35474074	     15.02508542	     15.02508542	     18.80649305	     -0.48337565	     -1.76351479	     29.68541016	     -6.56124427	      0.21920937	     27.49545291	     27.49545291	      5.37532326	    -14.32769978	      3.73965113	    -10.63077576	      3.62815526	      3.20157684	     22.24138605	    -14.29245425	      9.90329820	     64.76553864	     44.72238405	      0.00000000	      0.00000000	     -5.19753182	    -14.41980408	    -25.02675817	     32.01926053	     47.69319915	      0.00000000	      0.00000000
     24.32571429	     -4.94218334	     -5.61683840	      4.10330270	      0.80071858	      0.91635820	      0.40929906	      1.20613356	      2.54350047	    -15.24760129	     16.64328834	     16.64328834	     19.02901315	     -0.80277603	     -1.76030478	     29.42852527	     -6.21819963	      0.39792427	     28.08011533	     28.08011533	      6.04647593	    -14.85945218	      4.12482112	    -10.52204276	      3.37284467	      3.38557755	     21.44389453	    -14.55185936	      9.78869742	     64.08373767	     44.75489585	      0.00000000	      0.00000000	     -4.60766015	    -14.46392405	    -25.13932951	     32.25216213	     47.70708791	      0.00000000	      0.00000000
     24.33857143	     -4.74189116	     -5.51706621	      3.97228707	      0.80256591	      0.91696592	      0.40675671	      1.21726724	      2.05088781	    -15.16677834	     18.00232380	     18.00232380	     19.00217701	     -1.03989419	     -1.86214615	     28.92689616	     -6.00626144	      0.48817742	     28.58636283	     28.58636283	      6.72670234	    -15.18079192	      4.27330831	    -10.62062071	      3.24182592	      3.40135939	     20.66340871	    -14.67732394	      9.75143941	     63.48451307	     44.77828141	      0.00000000	      0.00000000	     -4.13237446	    -14.56837499	    -25.19947935	     32.49830491	     47.71655585	      0.00000000	      0.00000000
     24.35142857	     -4.68758378	     -5.40149943	      3.77483449	      0.80418404	      0.91752396	      0.40422292	      1.63648006	      1.44709682	    -15.04906944	     19.80086381	     19.80086381	     18.90288073	     -1.35600052	     -2.16782862	     28.47844085	     -5.79523847	      0.44100857	     28.90109031	     28.90109031	      7.42845118	    -15.36217672	      4.51411545	    -10.57632767	      3.09197630	      3.55665615	     19.80113139	    -14.90317060	      9.68508020	     62.63504610	     44.81147681	      0.00000000	      0.00000000	     -3.57825152	    -14.59189316	    -25.24887586	     32.89535095	     47.72441592	      0.00000000	      0.00000000
     24.36428571	     -4.68771942	     -5.31880189	      3.55410862	      0.80567516	      0.91813405	      0.40176665	      2.25144939	      0.83935333	    -14.90175298	     21.81075101	     21.81075101	     18.64958958	     -1.72513288	     -2.66841065	     28.02173229	     -5.64139360	      0.28431960	     29.07616866	     29.07616866	      8.14286558	    -15.40384761	      4.80930097	    -10.46774692	      2.97888557	      3.75686637	     18.95285136	    -15.10024797	      9.58132908	     61.60038594	     44.85324099	      0.00000000	      0.00000000	     -3.06327534	    -14.60112744	    -25.29063794	     33.41343370	     47.72932505	      0.00000000	      0.00000000
